<?xml version="1.0" encoding="UTF-8" standalone="no"?>
<!-- Generator: Adobe Illustrator 22.0.1, SVG Export Plug-In . SVG Version: 6.00 Build 0)  -->

<svg
   version="1.1"
   id="Layer_2_1_"
   x="0px"
   y="0px"
   viewBox="0 0 100 100"
   style="enable-background:new 0 0 100 100;"
   xml:space="preserve"
   sodipodi:docname="book.svg"
   inkscape:version="1.4 (1:1.4+202410161351+e7c3feb100)"
   xmlns:inkscape="http://www.inkscape.org/namespaces/inkscape"
   xmlns:sodipodi="http://sodipodi.sourceforge.net/DTD/sodipodi-0.dtd"
   xmlns="http://www.w3.org/2000/svg"
   xmlns:svg="http://www.w3.org/2000/svg"><sodipodi:namedview
   id="namedview1"
   pagecolor="#ffffff"
   bordercolor="#000000"
   borderopacity="0.25"
   inkscape:showpageshadow="2"
   inkscape:pageopacity="0.0"
   inkscape:pagecheckerboard="0"
   inkscape:deskcolor="#d1d1d1"
   inkscape:zoom="14.22"
   inkscape:cx="49.964838"
   inkscape:cy="50"
   inkscape:window-width="3072"
   inkscape:window-height="1691"
   inkscape:window-x="0"
   inkscape:window-y="0"
   inkscape:window-maximized="1"
   inkscape:current-layer="Layer_2_1_" /><defs
   id="defs3" />
<g
   id="g3"
   style="fill:#e4154b;fill-opacity:1">
	<path
   d="M28.2,8.2H81c1.5,0,2.8-1.2,2.8-2.8S82.5,2.7,81,2.7H28.2c-6.1,0-11.1,4.5-11.8,10.4c-0.1,0.2-0.1,0.5-0.1,0.8v74.8   c0,4.8,3.9,8.7,8.7,8.7h54.1c2,0,3.7-1.7,3.7-3.7V24.8c0-2-1.7-3.7-3.7-3.7H28.2c-3.5,0-6.5-3-6.5-6.5S24.7,8.2,28.2,8.2z    M28.2,26.6h49.1v65.3H25c-1.8,0-3.2-1.4-3.2-3.2V24.7C23.6,25.9,25.8,26.6,28.2,26.6z"
   id="path1"
   style="fill:#e4154b;fill-opacity:1" />
	<path
   d="M62.7,80.6H37.3c-1.5,0-2.8,1.2-2.8,2.8s1.2,2.8,2.8,2.8h25.3c1.5,0,2.8-1.2,2.8-2.8S64.2,80.6,62.7,80.6z"
   id="path2"
   style="fill:#e4154b;fill-opacity:1" />
	<path
   d="M34.7,44.3h30.5c1.1,0,2-0.9,2-2v-6c0-1.1-0.9-2-2-2H34.7c-1.1,0-2,0.9-2,2v6C32.7,43.4,33.6,44.3,34.7,44.3z"
   id="path3"
   style="fill:#e4154b;fill-opacity:1" />
</g>
</svg>
