<?xml version="1.0" encoding="UTF-8" standalone="no"?>
<svg
   width="1.4em"
   height="1.4em"
   viewBox="1714.544 1153.736 30.853 30.496"
   fill="none"
   version="1.1"
   id="svg1"
   sodipodi:docname="docs.svg"
   inkscape:version="1.4 (1:1.4+202410161351+e7c3feb100)"
   xmlns:inkscape="http://www.inkscape.org/namespaces/inkscape"
   xmlns:sodipodi="http://sodipodi.sourceforge.net/DTD/sodipodi-0.dtd"
   xmlns="http://www.w3.org/2000/svg"
   xmlns:svg="http://www.w3.org/2000/svg">
  <defs
     id="defs1" />
  <sodipodi:namedview
     id="namedview1"
     pagecolor="#ffffff"
     bordercolor="#000000"
     borderopacity="0.25"
     inkscape:showpageshadow="2"
     inkscape:pageopacity="0.0"
     inkscape:pagecheckerboard="0"
     inkscape:deskcolor="#d1d1d1"
     inkscape:zoom="256"
     inkscape:cx="-0.5"
     inkscape:cy="-0.5"
     inkscape:window-width="3072"
     inkscape:window-height="1691"
     inkscape:window-x="0"
     inkscape:window-y="0"
     inkscape:window-maximized="1"
     inkscape:current-layer="svg1" />
  <path
     d="M1744.208 1153.736h-15.296a1.25 1.25 0 0 0-1.248 1.248v5.792h-11.872a1.25 1.25 0 0 0-1.248 1.248v14.24c0 .096.032.16.096.224l7.68 7.648a.29.29 0 0 0 .224.096h8.448a1.25 1.25 0 0 0 1.248-1.248v-9.056l3.2 3.168a.29.29 0 0 0 .224.096h8.512c.672 0 1.216-.544 1.216-1.216v-20.992c.064-.672-.512-1.248-1.184-1.248Zm-22.272 27.52-4.352-4.352h4.352v4.352Zm8.544 1.248h-6.784v-6.112c0-.672-.576-1.216-1.248-1.216h-6.112v-12.64h14.176l-.032 19.968Zm1.76-12.608h2.784v4.288l-2.784-2.72v-1.568Zm11.456 5.504h-6.88v-6.016c0-.672-.544-1.248-1.216-1.248h-3.36v-6.112c0-.672-.576-1.248-1.216-1.248h-1.6v-5.28h14.24l.032 19.904Z"
     style="fill:#e4154b;fill-opacity:1"
     class="fills"
     data-testid="svg-path"
     id="path1" />
</svg>
