<?xml version="1.0" encoding="UTF-8" standalone="no"?>
<!-- Created with Inkscape (http://www.inkscape.org/) -->

<svg
   width="25.842737mm"
   height="21.695833mm"
   viewBox="0 0 25.842737 21.695833"
   version="1.1"
   id="svg1"
   xml:space="preserve"
   sodipodi:docname="user.svg"
   inkscape:version="1.4 (1:1.4+202410161351+e7c3feb100)"
   xmlns:inkscape="http://www.inkscape.org/namespaces/inkscape"
   xmlns:sodipodi="http://sodipodi.sourceforge.net/DTD/sodipodi-0.dtd"
   xmlns="http://www.w3.org/2000/svg"
   xmlns:svg="http://www.w3.org/2000/svg"><sodipodi:namedview
     id="namedview1"
     pagecolor="#ffffff"
     bordercolor="#000000"
     borderopacity="0.25"
     inkscape:showpageshadow="2"
     inkscape:pageopacity="0.0"
     inkscape:pagecheckerboard="0"
     inkscape:deskcolor="#d1d1d1"
     inkscape:document-units="mm"
     inkscape:zoom="17.341464"
     inkscape:cx="48.842475"
     inkscape:cy="41"
     inkscape:window-width="3072"
     inkscape:window-height="1691"
     inkscape:window-x="0"
     inkscape:window-y="0"
     inkscape:window-maximized="1"
     inkscape:current-layer="svg1" /><defs
     id="defs1" /><g
     id="layer1"
     transform="translate(-92.043131,-137.65208)"
     style="fill:#e4154b;fill-opacity:1"><g
       id="g1"
       transform="matrix(0.26458333,0,0,0.26458333,91.723384,135.27083)"
       style="fill:#e4154b;fill-opacity:1"><path
         class="st0"
         d="M 8.5,87.7"
         id="path1"
         style="fill:#e4154b;fill-opacity:1" /><g
         id="g3"
         style="fill:#e4154b;fill-opacity:1">
	<path
   d="M 50,57 C 63.2,57 74,46.2 74,33 74,19.8 63.2,9 50,9 36.8,9 26,19.7 26,33 26,46.3 36.8,57 50,57 Z M 50,14.5 C 60.2,14.5 68.5,22.8 68.5,33 68.5,43.2 60.2,51.5 50,51.5 39.8,51.5 31.5,43.2 31.5,33 31.5,22.8 39.8,14.5 50,14.5 Z"
   id="path2"
   style="fill:#e4154b;fill-opacity:1" />
	<path
   d="M 97.9,86.2 C 84.7,74.5 67.7,68 50,68 32.3,68 15.3,74.5 2.1,86.2 c -1.1,1 -1.2,2.7 -0.2,3.9 1,1.1 2.7,1.2 3.9,0.2 C 17.9,79.5 33.7,73.5 50,73.5 c 16.3,0 32.1,6 44.3,16.8 0.5,0.5 1.2,0.7 1.8,0.7 0.8,0 1.5,-0.3 2.1,-0.9 1,-1.1 0.9,-2.9 -0.3,-3.9 z"
   id="path3"
   style="fill:#e4154b;fill-opacity:1" />
</g></g></g><style
     type="text/css"
     id="style1">
	.st0{fill:none;stroke:#000000;stroke-width:5;stroke-miterlimit:10;}
</style></svg>
