<?xml version="1.0" encoding="UTF-8" standalone="no"?>
<!-- Generator: Adobe Illustrator 22.0.1, SVG Export Plug-In . SVG Version: 6.00 Build 0)  -->

<svg
   version="1.1"
   id="Layer_1"
   x="0px"
   y="0px"
   viewBox="0 0 100 100"
   style="enable-background:new 0 0 100 100;"
   xml:space="preserve"
   sodipodi:docname="category.svg"
   inkscape:export-filename="../latestcode/cabinet-app/assets_custom/dbp-cabinet/assets/icon/category.svg"
   inkscape:export-xdpi="96"
   inkscape:export-ydpi="96"
   inkscape:version="1.4 (1:1.4+202410161351+e7c3feb100)"
   xmlns:inkscape="http://www.inkscape.org/namespaces/inkscape"
   xmlns:sodipodi="http://sodipodi.sourceforge.net/DTD/sodipodi-0.dtd"
   xmlns="http://www.w3.org/2000/svg"
   xmlns:svg="http://www.w3.org/2000/svg"><defs
   id="defs4" /><sodipodi:namedview
   id="namedview4"
   pagecolor="#ffffff"
   bordercolor="#000000"
   borderopacity="0.25"
   inkscape:showpageshadow="2"
   inkscape:pageopacity="0.0"
   inkscape:pagecheckerboard="0"
   inkscape:deskcolor="#d1d1d1"
   showguides="true"
   inkscape:zoom="14.22"
   inkscape:cx="50"
   inkscape:cy="50"
   inkscape:window-width="3072"
   inkscape:window-height="1691"
   inkscape:window-x="0"
   inkscape:window-y="0"
   inkscape:window-maximized="1"
   inkscape:current-layer="Layer_1"><sodipodi:guide
     position="96.413502,47.18706"
     orientation="0,-1"
     id="guide4"
     inkscape:locked="false" /><sodipodi:guide
     position="9.8452883,94.374121"
     orientation="1,0"
     id="guide5"
     inkscape:locked="false" /><sodipodi:guide
     position="89.930281,42.323202"
     orientation="1,0"
     id="guide6"
     inkscape:locked="false" /><sodipodi:guide
     position="96.554149,53.164557"
     orientation="0,-1"
     id="guide7"
     inkscape:locked="false" /><sodipodi:guide
     position="48.452883,97.327707"
     orientation="1,0"
     id="guide8"
     inkscape:locked="false" /><sodipodi:guide
     position="51.758087,97.468354"
     orientation="1,0"
     id="guide9"
     inkscape:locked="false" /><sodipodi:guide
     position="76.123528,90.87278"
     orientation="0,-1"
     id="guide10"
     inkscape:locked="false" /><sodipodi:guide
     position="78.959542,9.6161876"
     orientation="0,-1"
     id="guide11"
     inkscape:locked="false" /></sodipodi:namedview>
<g
   id="g4"
   style="fill:#9e1e4d;fill-opacity:1">
	<path
   d="m 15.178762,46.760056 h 26.6 c 3.6,0 6.5,-2.9 6.5,-6.5 v -26.6 c 0,-3.6 -2.9,-6.4999998 -6.5,-6.4999998 h -26.6 c -3.6,0 -6.5999997,2.8999998 -6.5999997,6.4999998 v 26.5 c 0,3.6 2.9999997,6.6 6.5999997,6.6 z m -1.1,-33.1 c 0,-0.6 0.5,-1 1.1,-1 h 26.6 c 0.6,0 1,0.5 1,1 v 26.6 c 0,0.4 -0.4,1 -1,1 h -26.6 c -0.6,0 -1.1,-0.5 -1.1,-1.1 z"
   id="path1"
   style="fill:#9e1e4d;fill-opacity:1" />
	<path
   d="m 58.122504,46.83038 h 26.5 c 3.5,0 6.5,-2.8 6.6,-6.3 v -26.7 c 0,-3.6 -2.9,-6.5000003 -6.5,-6.5000003 h -26.6 c -3.6,0 -6.5,2.9000003 -6.5,6.5000003 v 26.5 c -0.1,3.5 2.9,6.5 6.5,6.5 z m -1.1,-33.1 c 0,-0.6 0.5,-1 1,-1 h 26.6 c 0.6,0 1,0.5 1,1 v 26.5 c -0.1,0.5 -0.5,1 -1.2,1 h -26.3 c -0.6,0 -1,-0.5 -1,-1.1 v -26.4 z"
   id="path2"
   style="fill:#9e1e4d;fill-opacity:1" />
	<path
   d="m 41.877497,52.84768 h -26.6 c -3.6,0 -6.5000005,2.9 -6.5000005,6.5 v 26.5 c 0,3.6 2.9000005,6.5 6.5000005,6.5 h 26.5 c 3.5,0 6.5,-2.8 6.6,-6.3 v -26.7 c 0.1,-3.6 -2.9,-6.5 -6.5,-6.5 z m 1.1,33 c -0.1,0.5 -0.5,1 -1.2,1 h -26.5 c -0.6,0 -1,-0.5 -1,-1 v -26.5 c 0,-0.6 0.5,-1 1,-1 h 26.6 c 0.6,0 1.1,0.5 1.1,1 z"
   id="path3"
   style="fill:#9e1e4d;fill-opacity:1" />
	<path
   d="m 84.892826,52.847679 h -26.6 c -3.6,0 -6.5,2.9 -6.5,6.5 v 26.5 c 0,3.6 2.9,6.5 6.5,6.5 h 26.6 c 3.4,0 6.4,-2.8 6.5,-6.3 v -26.7 c 0,-3.6 -2.9,-6.5 -6.5,-6.5 z m 1,33 c -0.1,0.5 -0.6,1 -1,1 h -26.6 c -0.6,0 -1,-0.5 -1,-1 v -26.5 c 0,-0.6 0.5,-1 1,-1 h 26.6 c 0.6,0 1,0.5 1,1 z"
   id="path4"
   style="fill:#9e1e4d;fill-opacity:1" />
</g>
</svg>
