<?xml version="1.0" encoding="UTF-8" standalone="no"?>
<!-- Generator: Adobe Illustrator 22.0.1, SVG Export Plug-In . SVG Version: 6.00 Build 0)  -->

<svg
   version="1.1"
   id="Layer_2_1_"
   x="0px"
   y="0px"
   viewBox="0 0 100 100"
   style="enable-background:new 0 0 100 100;"
   xml:space="preserve"
   xmlns="http://www.w3.org/2000/svg"
   xmlns:svg="http://www.w3.org/2000/svg"><defs
   id="defs3" />
<g
   id="g3">
	<path
   d="M51.1,23.1c-5.9-0.7-11.5,2.3-14.2,7.6c-0.7,1.4-0.2,3,1.2,3.7c1.4,0.7,3,0.2,3.7-1.2c1.7-3.2,5.1-5.1,8.7-4.7   c3.9,0.5,7.1,3.8,7.6,7.6c0.4,3.7-1.5,7.2-4.8,8.8c-4,1.9-6.5,6.1-6.5,10.7v11.7c0,1.5,1.2,2.8,2.8,2.8s2.8-1.2,2.8-2.8V55.6   c0-2.4,1.4-4.7,3.4-5.7c5.4-2.6,8.5-8.3,7.9-14.3C62.7,29.2,57.5,23.9,51.1,23.1z"
   id="path1" />
	<path
   d="M49.4,74.9c-1.5,0-2.7,1.2-2.7,2.7s1.2,2.7,2.7,2.7c1.5,0,2.7-1.2,2.7-2.7S50.9,74.9,49.4,74.9z"
   id="path2" />
	<path
   d="m 49.3,2.1 c -26,0 -47.2,21.2 -47.2,47.2 0,26 21.2,47.2 47.2,47.2 26,0 47.2,-21.2 47.2,-47.2 C 96.5,23.2 75.3,2.1 49.3,2.1 Z m 0,88.9 C 26.3,91 7.6,72.3 7.6,49.3 7.6,26.3 26.3,7.6 49.3,7.6 72.3,7.6 91,26.3 91,49.3 91,72.3 72.3,91 49.3,91 Z"
   id="path3"
   style="display:none;fill:#9e1e4d;fill-opacity:1" />
</g>
</svg>
